<?xml version="1.0" encoding="UTF-8"?><svg width="500" height="500" id="Ebene_1" xmlns="http://www.w3.org/2000/svg" viewBox="0 0 500 500"><rect width="500" height="500" fill="#fff"/><path d="M40.72,85.32c5.44-6.94,15.48-8.16,22.43-2.72L457.19,391.44c6.92,5.46,8.19,15.51,2.73,22.43-5.46,6.92-15.51,8.19-22.43,2.73L43.43,107.75c-6.94-5.44-8.16-15.48-2.72-22.43h0Z" fill="#b3b3b3"/><path d="M313.68,279.02c.33-2.66,.53-5.39,.53-8.12,0-35.88-28.62-63.9-63.9-63.9-8.12,0-15.84,1.53-23.03,4.26l-86.93-68.16h31.88l6.92-20.75c4.33-13.05,16.51-21.85,30.29-21.85h81.74c13.78,0,25.96,8.8,30.29,21.85l6.92,20.75h49.72c23.5,0,42.6,19.1,42.6,42.6v170.4c0,2.2-.13,4.33-.47,6.39l-106.57-83.47Zm-63.37,55.78c8.59,0,16.77-1.66,24.23-4.79l87.2,68.69H122.51c-23.53,0-42.6-19.1-42.6-42.6V185.7c0-2.86,.29-5.66,.83-8.39l106.41,83.87c-.47,3.13-.73,6.39-.73,9.72,0,35.28,28.02,63.9,63.9,63.9Z" fill="#dcdcdc" isolation="isolate"/></svg>
