<svg width="100" height="25" viewBox="0 0 100 25" fill="none" xmlns="http://www.w3.org/2000/svg">
<path d="M22.7959 7.76741C22.93 1.94185 18.2388 0 12.8774 0C7.91814 0 2.55678 2.45968 2.55678 7.89686C2.55678 11.91 5.50553 13.4635 8.45428 14.3697C11.9392 15.5348 14.3518 15.6643 14.3518 17.4767C14.3518 19.0301 12.4753 19.8069 11.0009 19.8069C9.79462 19.8069 8.85638 19.6774 8.18621 19.1596C7.51604 18.5123 7.24797 17.7356 7.24797 16.441H0.0101293C-0.257939 22.5255 4.83536 24.9852 10.4648 24.9852C15.8262 24.9852 21.5896 22.2666 21.5896 16.5705C21.5896 13.7224 20.1152 11.3922 15.8262 9.96817C13.5476 9.06197 9.79462 9.06197 9.79462 7.24958C9.79462 5.6961 11.403 5.30773 12.7434 5.30773C13.5476 5.30773 14.3518 5.43718 15.022 5.82555C15.5581 6.21392 15.9602 6.86121 15.8262 7.76741H22.7959Z" fill="white"/>
<path d="M21.1875 24.4669H28.0232L30.0338 15.2755C30.4359 13.4631 31.2401 11.9096 33.3846 11.9096C34.4569 11.9096 35.2611 12.4274 35.2611 13.5925C35.2611 14.2398 34.859 15.4049 34.7249 16.4406L32.9825 24.3374H39.8182L41.9628 14.4987C42.2309 13.2042 42.4989 11.9096 42.4989 11.1329C42.4989 7.76697 39.8182 6.47241 36.6014 6.47241C34.7249 6.47241 32.5804 7.3786 31.2401 9.06154H31.106L32.9825 0.387939H26.1468L21.1875 24.4669Z" fill="white"/>
<path d="M49.2005 19.4189C49.2005 18.1244 50.2728 17.6066 51.4791 17.4771C52.6854 17.3476 54.0257 17.2182 55.098 16.7004C54.6959 19.2895 53.7576 20.9724 51.4791 20.9724C50.2728 20.9724 49.2005 20.7135 49.2005 19.4189ZM51.211 12.2988C51.6131 11.0043 52.5513 10.4864 53.8917 10.4864C54.964 10.4864 56.0362 10.7453 56.0362 12.0399C56.0362 14.2407 52.9534 13.8523 51.077 13.9818C45.9837 14.3701 42.3647 15.5352 42.3647 20.1957C42.3647 23.5616 45.0454 24.8561 48.1282 24.8561C50.1387 24.8561 52.4173 24.2088 53.6236 22.7848H53.7576C53.7576 23.3027 53.8917 23.9499 54.0257 24.4678H60.7274C60.5934 24.0794 60.4593 23.5616 60.4593 22.9143C60.4593 21.7492 62.6039 13.9818 62.6039 11.2632C62.6039 6.99109 57.1085 6.60272 53.8917 6.60272C49.4686 6.60272 45.8496 7.63838 44.7774 12.2988H51.211Z" fill="white"/>
<path d="M62.4702 24.4677H69.306L70.9144 17.2181C71.7186 13.5933 73.1929 12.4282 76.0077 12.4282C76.8119 12.4282 77.7501 12.5576 78.6883 12.8165L80.0287 6.99097C79.3585 6.73206 78.6883 6.73206 77.6161 6.73206C75.8736 6.73206 73.595 8.02662 72.3887 9.83902H72.2547L72.7908 7.12043H66.0891L62.4702 24.4677Z" fill="white"/>
<path d="M77.0803 24.4672H84.0501L85.1224 19.5479L86.5967 18.1238L89.0094 24.4672H96.5153L91.9581 14.1107L100 7.12H91.8241L86.7308 12.1688H86.5967L89.1434 0.5177H82.3077L77.0803 24.4672Z" fill="white"/>
<path d="M98.3908 22.267C99.061 22.267 99.5971 22.7849 99.5971 23.4321C99.5971 24.0794 99.061 24.5973 98.3908 24.5973C97.7206 24.5973 97.1845 24.0794 97.1845 23.4321C97.0505 22.7849 97.7206 22.267 98.3908 22.267ZM98.3908 24.4678C98.9269 24.4678 99.329 24.0794 99.329 23.5616C99.329 23.0438 98.9269 22.6554 98.3908 22.6554C97.8547 22.6554 97.4526 23.0438 97.4526 23.5616C97.3185 24.0794 97.8547 24.4678 98.3908 24.4678ZM97.8547 22.9143H98.3908C98.7929 22.9143 98.9269 23.0438 98.9269 23.3027C98.9269 23.5616 98.7929 23.6911 98.5248 23.6911L98.9269 24.2089H98.6589L98.2568 23.6911H98.1227V24.2089H97.8547V22.9143ZM98.1227 23.4321H98.3908C98.5248 23.4321 98.6589 23.4321 98.6589 23.3027C98.6589 23.1732 98.5248 23.1732 98.3908 23.1732H98.1227V23.4321Z" fill="white"/>
</svg>
