<?xml version="1.0" encoding="utf-8"?>
<!-- Generator: Adobe Illustrator 21.1.0, SVG Export Plug-In . SVG Version: 6.00 Build 0)  -->
<!DOCTYPE svg PUBLIC "-//W3C//DTD SVG 1.1//EN" "http://www.w3.org/Graphics/SVG/1.1/DTD/svg11.dtd">
<svg version="1.1" id="Ebene_1" xmlns="http://www.w3.org/2000/svg" xmlns:xlink="http://www.w3.org/1999/xlink" x="0px" y="0px"
	 width="30px" height="210px" viewBox="0 0 30 210" enable-background="new 0 0 30 210" xml:space="preserve">
<style type="text/css">
	.st0{fill:#FFFFFF;}
</style>
<title>sprite-icons</title>
<path class="st0" d="M1.7,0C0.7,0,0,0.7,0,1.6c0,0,0,0,0,0v26.7C0,29.3,0.7,30,1.6,30c0,0,0,0,0,0H16V18.4h-3.9v-4.5H16v-3.3
	c0-3.9,2.4-6,5.8-6c1.2,0,2.3,0.1,3.5,0.2v4h-2.4c-1.9,0-2.2,0.9-2.2,2.2v2.9h4.5l-0.6,4.5h-3.9V30h7.6c0.9,0,1.6-0.7,1.6-1.6V1.7
	C30,0.7,29.3,0,28.4,0c0,0,0,0,0,0H1.7z"/>
<path class="st0" d="M29,30H1c-0.6,0-1,0.4-1,1v28c0,0.6,0.4,1,1,1h28c0.6,0,1-0.4,1-1V31C30,30.4,29.6,30,29,30z M22.2,41.6
	c0,0.2,0,0.3,0,0.5c0,5.8-4.7,10.5-10.5,10.5c-2,0-4-0.6-5.7-1.7c0.3,0,0.6,0.1,0.9,0c1.7,0,3.3-0.6,4.6-1.6c-1.6,0-3-1.1-3.5-2.6
	c0.6,0.1,1.1,0.1,1.7-0.1c-1.7-0.3-3-1.9-3-3.6l0,0c0.5,0.3,1.1,0.4,1.7,0.5c-1.6-1.1-2.1-3.2-1.1-4.9c1.9,2.3,4.6,3.7,7.6,3.9
	c-0.5-2,0.8-4,2.7-4.4c1.3-0.3,2.7,0.1,3.6,1.1c0.8-0.2,1.6-0.5,2.3-0.9c-0.3,0.8-0.9,1.5-1.6,2c0.8-0.1,1.5-0.3,2.2-0.6l0,0
	C23.5,40.4,22.9,41.1,22.2,41.6z"/>
<polygon class="st0" points="13.2,77.6 17.8,75 13.2,72.4 "/>
<path class="st0" d="M29,60H1c-0.6,0-1,0.4-1,1v28c0,0.6,0.4,1,1,1h28c0.6,0,1-0.4,1-1V61C30,60.4,29.6,60,29,60z M22.8,80.5
	c-1.5,1.1-14.1,1.1-15.7,0s-1.6-9.8,0-10.9c0.8-0.5,4.3-0.8,7.8-0.8s7.1,0.3,7.8,0.8C24.4,70.6,24.4,79.4,22.8,80.5z"/>
<path class="st0" d="M15,191.9c-1.7,0-3.1,1.4-3.1,3.1s1.4,3.1,3.1,3.1s3.1-1.4,3.1-3.1C18.1,193.3,16.7,191.9,15,191.9
	C15,191.9,15,191.9,15,191.9z"/>
<path class="st0" d="M18.8,187.6h-7.6c-2,0-3.7,1.6-3.7,3.6c0,0,0,0,0,0.1v7.5c0,2,1.6,3.7,3.6,3.7c0,0,0,0,0.1,0h7.6
	c2,0,3.7-1.6,3.7-3.6c0,0,0,0,0-0.1v-7.5C22.5,189.2,20.9,187.6,18.8,187.6C18.8,187.6,18.8,187.6,18.8,187.6z M15,199.6
	c-2.6,0-4.6-2.1-4.6-4.6c0-2.6,2.1-4.6,4.6-4.6s4.6,2.1,4.6,4.6l0,0C19.6,197.5,17.5,199.6,15,199.6z M19.8,191.3
	c-0.6,0-1.1-0.5-1.1-1.1s0.5-1.1,1.1-1.1c0.6,0,1.1,0.5,1.1,1.1C20.9,190.8,20.4,191.3,19.8,191.3C19.8,191.3,19.8,191.3,19.8,191.3
	L19.8,191.3z"/>
<path class="st0" d="M29,180H1c-0.6,0-1,0.4-1,1v28c0,0.6,0.4,1,1,1h28c0.6,0,1-0.4,1-1v-28C30,180.4,29.6,180,29,180z M24,198.8
	c0,2.9-2.3,5.2-5.2,5.2c0,0,0,0,0,0h-7.6c-2.9,0-5.2-2.3-5.2-5.2v0v-7.5c0-2.9,2.3-5.2,5.2-5.2c0,0,0,0,0,0h7.6
	c2.9,0,5.2,2.3,5.2,5.2v0V198.8z"/>
<path class="st0" d="M29,90H1c-0.6,0-1,0.4-1,1v28c0,0.6,0.4,1,1,1h28c0.6,0,1-0.4,1-1V91C30,90.4,29.6,90,29,90z M18.9,98.6
	c-0.8,0-1.3,0.7-1.3,2.1c0,2.8,1.8,4.4,4.1,4.4c0.4,0,0.9-0.1,1.3-0.2l0,0v2.2c-0.7,0.2-1.4,0.2-2.2,0.3c-1.2,2.5-3,4.8-5.2,6.5
	c-0.5,0.4-1.2,0.4-1.8,0c-1.1-0.7-5.4-4.2-6.8-15.2h3.1c0.8,6.6,2.7,10,4.8,12.6c1.3-1.3,2.3-2.8,3.1-4.5c-2.2-1.2-3.5-3.6-3.3-6.1
	c0-2.7,1.6-4.8,4.3-4.8s4,1.6,4,4.4c0,1.1-0.2,2.1-0.6,3.1c-1,0.3-2,0-2.6-0.9c0.2-0.6,0.3-1.3,0.3-2C20.1,99.3,19.6,98.6,18.9,98.6
	z"/>
<path class="st0" d="M29,120H1c-0.6,0-1,0.4-1,1v28c0,0.6,0.4,1,1,1h28c0.6,0,1-0.4,1-1v-28C30,120.4,29.6,120,29,120z M16.5,139.7
	c-1.1,0-2.2-0.5-2.9-1.4c0,0-0.6,2.4-0.8,3c-0.5,1.4-1.2,2.8-2,4c0,0.1-0.1,0.1-0.2,0c0,0-0.1-0.1-0.1-0.1c-0.3-1.5-0.3-3.1-0.1-4.6
	c0.2-1,1.5-6.2,1.5-6.2c-0.3-0.6-0.4-1.2-0.4-1.9c0-1.7,1-3,2.3-3c0.9,0,1.6,0.7,1.6,1.5c0,0.1,0,0.2,0,0.2c-0.2,1.4-0.5,2.8-1,4.2
	c-0.2,1,0.3,2,1.3,2.2c0.2,0,0.4,0.1,0.5,0.1c2.2,0,3.9-2.4,3.9-5.7c0.1-2.7-2-5-4.8-5.1c-0.2,0-0.3,0-0.5,0c-3-0.1-5.5,2.2-5.7,5.2
	c0,0.1,0,0.2,0,0.3c0,1,0.3,2,0.9,2.9c0.1,0.1,0.1,0.2,0.1,0.4c-0.1,0.4-0.3,1.3-0.4,1.4s-0.2,0.3-0.4,0.2c-1.6-0.8-2.6-3-2.6-4.9
	c0-4,2.9-7.6,8.3-7.6l0,0c4.3,0,7.7,3.1,7.7,7.2C23,136.2,20.3,139.7,16.5,139.7z"/>
<path class="st0" d="M29,150H1c-0.6,0-1,0.4-1,1v28c0,0.6,0.4,1,1,1h28c0.6,0,1-0.4,1-1v-28C30,150.4,29.6,150,29,150z M11.7,170.7
	c-3.2,0-5.7-2.6-5.7-5.7c0-3.2,2.6-5.7,5.7-5.7c1.4,0,2.8,0.5,3.9,1.5c-1.2,1.1-1.2,1.2-1.6,1.7c-0.6-0.5-1.4-0.8-2.2-0.8
	c-1.9,0.1-3.3,1.7-3.2,3.6c0.1,1.7,1.5,3.1,3.2,3.2c1.5,0.2,2.8-0.8,3.1-2.3h-3.1v-2.3h5.5C17.6,166.6,16.4,170.7,11.7,170.7z
	 M24,165.4h-2v2h-1.4v-2h-2V164h2v-2H22v2h2V165.4z"/>
</svg>
