<?xml version="1.0" encoding="utf-8"?>
<!-- Generator: Adobe Illustrator 16.0.0, SVG Export Plug-In . SVG Version: 6.00 Build 0)  -->
<!DOCTYPE svg PUBLIC "-//W3C//DTD SVG 1.1//EN" "http://www.w3.org/Graphics/SVG/1.1/DTD/svg11.dtd">
<svg version="1.1" id="Layer_1" xmlns="http://www.w3.org/2000/svg" xmlns:xlink="http://www.w3.org/1999/xlink" x="0px" y="0px"
	 width="40px" height="480px" viewBox="0 0 40 480" enable-background="new 0 0 40 480" xml:space="preserve">
<rect y="-27" display="none" opacity="0.4" fill="#27AAE1" width="82" height="541"/>
<path id="facebook-circle-icon" fill="#FFFFFF" d="M15,0C6.715,0,0,6.715,0,15c0,8.284,6.715,15,15,15c8.284,0,15-6.716,15-15
	C30,6.715,23.284,0,15,0z M19.439,8.824c0,0-1.5,0-2.096,0c-0.74,0-0.895,0.303-0.895,1.069c0,0.637,0,1.85,0,1.85h2.99
	l-0.288,3.248h-2.702v9.701h-3.874v-9.66h-2.015v-3.288h2.015c0,0,0-0.473,0-2.589c0-2.431,1.3-3.7,4.183-3.7
	c0.472,0,2.682,0,2.682,0V8.824L19.439,8.824z"/>
<path id="twitter-4-icon" fill="#FFFFFF" d="M15,30C6.716,30,0,36.716,0,45s6.716,15,15,15s15-6.716,15-15S23.284,30,15,30z
	 M22.544,42.415c0.22,4.894-3.43,10.35-9.889,10.35c-1.965,0-3.793-0.576-5.333-1.563c1.846,0.218,3.688-0.294,5.15-1.44
	c-1.522-0.028-2.807-1.034-3.25-2.416c0.545,0.104,1.081,0.073,1.571-0.06c-1.673-0.337-2.828-1.844-2.791-3.455
	c0.469,0.26,1.006,0.417,1.576,0.435c-1.549-1.035-1.988-3.081-1.077-4.645c1.716,2.104,4.279,3.49,7.171,3.635
	c-0.507-2.176,1.144-4.271,3.389-4.271c1.001,0,1.905,0.422,2.539,1.099c0.793-0.156,1.537-0.445,2.21-0.845
	c-0.26,0.813-0.812,1.495-1.53,1.925c0.704-0.084,1.374-0.271,1.999-0.548C23.813,41.313,23.224,41.925,22.544,42.415z"/>
<path id="youtube-4-icon" fill="#FFFFFF" d="M17.303,77.253c-0.34,0-0.633,0.216-0.847,0.479v-2.236h-0.962v6.946h0.962v-0.394
	c0.266,0.331,0.556,0.458,0.905,0.458c0.634,0,0.87-0.493,0.87-1.126v-2.843C18.231,77.842,18,77.253,17.303,77.253z M17.252,81.24
	c0,0.163-0.028,0.281-0.084,0.354c-0.104,0.138-0.332,0.131-0.486,0.052c-0.073-0.036-0.148-0.097-0.226-0.18v-3.193
	c0.064-0.07,0.129-0.122,0.196-0.156c0.167-0.084,0.383-0.067,0.497,0.085c0.067,0.089,0.103,0.221,0.103,0.394V81.24L17.252,81.24z
	 M14.042,71.164v-2.503c0-0.294,0.136-0.513,0.417-0.513c0.307,0,0.438,0.212,0.438,0.513v2.503c0,0.293-0.149,0.51-0.418,0.51
	C14.203,71.674,14.042,71.448,14.042,71.164z M13.612,77.317h0.953v5.124h-0.953v-0.565c-0.176,0.208-0.359,0.367-0.548,0.476
	c-0.513,0.294-1.218,0.288-1.218-0.752v-4.282h0.953v3.927c0,0.207,0.05,0.346,0.253,0.346c0.185,0,0.444-0.237,0.56-0.384V77.317z
	 M11.858,76.503h-1.11v5.938H9.676v-5.938h-1.11v-1.008h3.293V76.503L11.858,76.503z M20.397,77.188
	c-0.859,0-1.446,0.617-1.446,1.508v2.3c0,0.922,0.464,1.585,1.374,1.585c1.004,0,1.428-0.598,1.428-1.585v-0.386h-0.98v0.356
	c0,0.446-0.023,0.717-0.426,0.717c-0.383,0-0.416-0.332-0.416-0.717v-0.967h1.822v-1.304C21.753,77.769,21.312,77.188,20.397,77.188
	z M20.772,79.204h-0.842v-0.519c0-0.353,0.073-0.601,0.426-0.601c0.342,0,0.416,0.254,0.416,0.601V79.204L20.772,79.204z M14.999,60
	C6.716,60,0,66.716,0,75s6.716,14.999,14.999,14.999C23.284,89.999,30,83.284,30,75S23.284,60,14.999,60z M16.766,67.172h1.001
	v4.124c0,0.217,0.052,0.362,0.267,0.362c0.194,0,0.466-0.25,0.588-0.403v-4.083h1v5.38h-1v-0.594
	c-0.434,0.515-0.854,0.672-1.156,0.672c-0.536,0-0.699-0.43-0.699-0.961V67.172L16.766,67.172z M14.479,67.127
	c0.812,0,1.438,0.604,1.438,1.446v2.637c0,0.904-0.634,1.441-1.438,1.441c-0.97,0-1.466-0.493-1.466-1.441v-2.637
	C13.013,67.71,13.597,67.127,14.479,67.127z M10.421,65.259l0.777,2.915l0.722-2.915h1.144l-1.311,4.335v2.958h-1.126v-2.958
	l-1.34-4.335H10.421z M23.262,81.864c0,1.268-1.026,2.294-2.294,2.294H9.177c-1.267,0-2.293-1.026-2.293-2.294V76.07
	c0-1.267,1.027-2.294,2.293-2.294h11.791c1.268,0,2.294,1.027,2.294,2.294V81.864z"/>
<g>
	<path id="vimeo-circle-icon_2_" fill="#FFFFFF" d="M15,90c-8.285,0-15,6.717-15,15.001s6.715,15,15,15s15-6.716,15-15
		S23.284,90,15,90z M23.75,101.773c-0.08,1.749-1.301,4.143-3.662,7.181c-2.441,3.175-4.506,4.762-6.196,4.762
		c-1.046,0-1.932-0.967-2.655-2.899c-0.483-1.772-0.966-3.544-1.45-5.316c-0.538-1.933-1.113-2.9-1.73-2.9
		c-0.134,0-0.604,0.284-1.409,0.847l-0.845-1.089c0.887-0.778,1.76-1.558,2.621-2.337c1.182-1.021,2.069-1.56,2.661-1.613
		c1.397-0.134,2.257,0.821,2.58,2.866c0.349,2.207,0.59,3.579,0.726,4.116c0.402,1.832,0.845,2.746,1.33,2.746
		c0.376,0,0.94-0.594,1.693-1.781c0.752-1.188,1.154-2.092,1.208-2.712c0.107-1.025-0.295-1.54-1.208-1.54
		c-0.431,0-0.874,0.1-1.33,0.295c0.883-2.892,2.569-4.296,5.057-4.216C22.986,98.236,23.855,99.434,23.75,101.773z"/>
</g>
<path id="pinterest-circle-icon" fill="#FFFFFF" d="M15,120c-8.284,0-15,6.716-15,15s6.716,15,15,15s15-6.716,15-15
	S23.284,120,15,120z M16.968,139.938c-1.172,0-2.274-0.634-2.652-1.354c0,0-0.63,2.502-0.764,2.984
	c-0.47,1.705-1.853,3.413-1.96,3.553c-0.075,0.097-0.24,0.066-0.258-0.063c-0.03-0.217-0.382-2.37,0.033-4.125
	c0.208-0.882,1.396-5.916,1.396-5.916s-0.346-0.693-0.346-1.718c0-1.608,0.933-2.81,2.094-2.81c0.987,0,1.464,0.741,1.464,1.63
	c0,0.992-0.632,2.477-0.959,3.852c-0.272,1.152,0.578,2.092,1.713,2.092c2.057,0,3.442-2.643,3.442-5.772
	c0-2.379-1.603-4.16-4.517-4.16c-3.292,0-5.345,2.456-5.345,5.199c0,0.945,0.28,1.613,0.717,2.129
	c0.2,0.237,0.229,0.333,0.156,0.605c-0.053,0.2-0.172,0.681-0.222,0.871c-0.072,0.275-0.295,0.373-0.544,0.271
	c-1.516-0.619-2.223-2.28-2.223-4.147c0-3.084,2.601-6.781,7.758-6.781c4.145,0,6.873,2.999,6.873,6.219
	C22.825,136.756,20.458,139.938,16.968,139.938z"/>
<path id="google-plus-circle-icon" fill="#FFFFFF" d="M16.234,170.437c0,1.474-1.197,2.626-3.676,2.626
	c-1.939,0-3.339-1.228-3.339-2.702c0-1.444,1.643-2.69,3.581-2.669C14.952,167.691,16.234,169.031,16.234,170.437z M30,165
	c0,8.284-6.716,15-15,15c-8.285,0-15-6.716-15-15s6.715-15,15-15C23.284,150,30,156.716,30,165z M17.904,170.265
	c0-1.36-0.508-2.25-2.046-3.402c-1.56-1.137-1.94-1.779-0.452-2.931c0.839-0.648,1.427-1.513,1.427-2.58
	c0-1.163-0.476-2.218-1.37-2.73h1.268l1.079-1.132c0,0-4.067,0-4.828,0c-3.014,0-4.492,1.807-4.492,3.794
	c0,2.03,1.393,3.63,4.114,3.63c-0.422,0.852-0.253,1.638,0.438,2.2c-4.646,0-5.641,2.039-5.641,3.609
	c0,2.035,2.339,3.244,5.144,3.244C16.38,173.967,17.904,171.935,17.904,170.265z M24.201,159.939h-2.228v-2.228h-1.114v2.228h-2.227
	v1.113h2.227v2.228h1.114v-2.228h2.228V159.939z M14.893,161.425c-0.225-1.709-1.338-3.111-2.639-3.15
	c-1.301-0.038-2.174,1.27-1.949,2.979c0.225,1.709,1.461,2.901,2.763,2.941C14.369,164.233,15.117,163.134,14.893,161.425z"/>
<path id="instagram-circle-icon" fill="#FFFFFF" d="M22.129,188.451v1.844c0,0.296-0.24,0.535-0.536,0.535H19.79
	c-0.296,0-0.536-0.239-0.536-0.535v-1.844c0-0.295,0.24-0.535,0.536-0.535h1.803C21.889,187.916,22.129,188.156,22.129,188.451z
	 M15.219,197.534c1.357,0,2.457-1.1,2.457-2.457s-1.1-2.458-2.457-2.458s-2.458,1.101-2.458,2.458S13.861,197.534,15.219,197.534z
	 M30,195c0,8.284-6.716,15-15,15s-15-6.716-15-15s6.716-15,15-15S30,186.716,30,195z M23.653,192.577h-4.928
	c0.502,0.706,0.799,1.568,0.799,2.5c0,2.384-1.933,4.316-4.317,4.316c-2.384,0-4.316-1.933-4.316-4.316
	c0-0.932,0.296-1.794,0.799-2.5H6.784v7.565c0,1.842,1.494,3.336,3.337,3.336h10.197c1.843,0,3.336-1.494,3.336-3.336V192.577z
	 M15.208,198.402c1.833,0,3.326-1.491,3.326-3.325c0-0.995-0.44-1.89-1.136-2.5c-0.244-0.214-0.52-0.392-0.818-0.528
	c-0.418-0.19-0.882-0.297-1.372-0.297c-0.489,0-0.953,0.106-1.372,0.297c-0.299,0.137-0.574,0.314-0.818,0.528
	c-0.695,0.61-1.136,1.505-1.136,2.5C11.882,196.911,13.374,198.402,15.208,198.402z M23.653,189.857
	c0-1.842-1.494-3.336-3.336-3.336H11.2v4.206h-0.684v-4.206h-0.395c-0.026,0-0.051,0.001-0.078,0.002v4.204H9.359v-4.118
	c-0.166,0.039-0.327,0.09-0.482,0.152v3.966H8.193v-3.593c-0.853,0.604-1.41,1.598-1.41,2.723v2.191h5.349
	c0.783-0.795,1.871-1.288,3.075-1.288c1.204,0,2.292,0.493,3.076,1.288h5.37V189.857L23.653,189.857z"/>
</svg>
