<?xml version="1.0" encoding="UTF-8"?><svg id="Ebene_2" xmlns="http://www.w3.org/2000/svg" viewBox="0 0 113.1 38.8"><g id="Ebene_1-2"><path d="M7.3,32.5h14.1v5.7H0V.5h7.3v32Z" fill="#006f6f" stroke-width="0"/><path d="M50.8,24.7c0,4.4-1.3,7.9-3.8,10.4s-5.8,3.7-10,3.7-7.5-1.2-10-3.7-3.7-5.9-3.7-10.4v-10.5c0-4.4,1.2-7.9,3.7-10.4,2.5-2.5,5.8-3.8,10-3.8s7.5,1.3,10,3.8c2.5,2.5,3.8,6,3.8,10.4v10.5ZM43.5,14.1c0-2.7-.6-4.8-1.7-6.2-1.1-1.4-2.7-2.1-4.8-2.1s-3.7.7-4.8,2.1c-1.1,1.4-1.6,3.5-1.6,6.2v10.6c0,2.8.5,4.9,1.6,6.3s2.7,2.1,4.8,2.1,3.7-.7,4.8-2.1,1.6-3.5,1.6-6.3v-10.6Z" fill="#006f6f" stroke-width="0"/><path d="M81.1,33.3c-1.1,1.5-2.6,2.8-4.6,3.9-2,1.1-4.6,1.6-7.9,1.6s-7.3-1.2-9.8-3.6c-2.5-2.4-3.7-5.7-3.7-10.1v-11.4c0-4.3,1.2-7.7,3.6-10.1,2.4-2.4,5.6-3.6,9.5-3.6s7.2,1,9.3,2.9c2.1,1.9,3.1,4.7,3,8.3v.2h-6.9c0-2-.4-3.4-1.3-4.3-.9-.9-2.2-1.3-3.9-1.3s-3.3.7-4.4,2c-1.1,1.3-1.6,3.3-1.6,5.9v11.5c0,2.7.5,4.7,1.6,6,1.1,1.3,2.6,2,4.6,2s2.5-.2,3.3-.5c.8-.3,1.4-.8,1.9-1.3v-7.6h-5.7v-5h13v14.7Z" fill="#006f6f" stroke-width="0"/><path d="M113.1,24.7c0,4.4-1.3,7.9-3.8,10.4-2.5,2.5-5.8,3.7-10,3.7s-7.5-1.2-10-3.7-3.7-5.9-3.7-10.4v-10.5c0-4.4,1.2-7.9,3.7-10.4,2.5-2.5,5.8-3.8,10-3.8s7.5,1.3,10,3.8c2.5,2.5,3.8,6,3.8,10.4v10.5ZM105.8,14.1c0-2.7-.6-4.8-1.7-6.2-1.1-1.4-2.7-2.1-4.8-2.1s-3.7.7-4.8,2.1c-1.1,1.4-1.6,3.5-1.6,6.2v10.6c0,2.8.5,4.9,1.6,6.3s2.7,2.1,4.8,2.1,3.7-.7,4.8-2.1,1.6-3.5,1.6-6.3v-10.6Z" fill="#006f6f" stroke-width="0"/></g></svg>