<svg width="222" height="102" viewBox="0 0 222 102" fill="none" xmlns="http://www.w3.org/2000/svg">
<g clip-path="url(#clip0)">
<path d="M0 0V83.98L13.56 81.57V33.06L44.94 76.39L53.74 75.46V8.46L41.08 6.76V47.33L10.74 2.13L0 0Z" fill="white"/>
<path d="M77.17 72.48V11.25L66.58 9.96001V73.77L77.17 72.48Z" fill="white"/>
<path d="M97.83 13.29L89.42 12.55V71.55L100.63 70.25V35.75L125 68.59L133.89 68.03V16.07L122.66 15.14V46.56L97.83 13.29Z" fill="white"/>
<path d="M196.75 47.59H182.9L189.9 29.72L196.75 47.59ZM183.3 18.11L163.19 66.72L176.48 66.17L179.68 57.37H200L203 65.11H215.6L196.7 18.43L183.3 18.11Z" fill="white"/>
<path d="M151.44 87.19C154.813 76.8125 156.501 65.9616 156.44 55.05V17L144.56 16.44V55C144.56 81.09 135.13 98.15 135.13 98.15L151.44 87.19Z" fill="white"/>
<path d="M158.22 55.71C158.304 66.772 156.596 77.7747 153.16 88.29L153.04 88.61L135.49 100.35L138.55 101.03L154.88 90.03L155.25 89.03C155.46 88.46 160.45 74.9 160.45 55.67V19.19L158.23 16.82L158.22 55.71Z" fill="white"/>
<path d="M15.24 36.89V83.25L0.919998 85.87L2.9 87.75L17.46 85.11V40.17L15.24 36.89Z" fill="white"/>
<path d="M55.57 77.18L45.75 78.25L47.17 80.29L57.79 79.19V10.82L55.57 9.27V77.18Z" fill="white"/>
<path d="M79 74.2L66.98 75.65L68.71 77.64L81.23 76.17V13.13L79 11.1V74.2Z" fill="white"/>
<path d="M137.95 18.41L135.72 15.84V69.8L125.23 70.41L126.94 72.54L137.95 71.89V18.41Z" fill="white"/>
<path d="M102.32 71.98L89.26 73.36L91.01 75.33L104.54 73.96V42.99L102.32 39.4V71.98Z" fill="white"/>
<path d="M185.07 47.23H187.49L191.47 36.62L190.62 33.02L185.07 47.23Z" fill="white"/>
<path d="M177.82 67.98L163.04 68.55L163.79 70.8L179.4 70.14L183.38 59.18H181.02L177.82 67.98Z" fill="white"/>
<path d="M198.19 18.09L218 66.94L203.73 67L204.97 69.19L221.3 69.17L201.34 19.94L198.19 18.09Z" fill="white"/>
<path d="M207.44 22.77H207.87L208.56 23.77H209.05L208.34 22.77C208.527 22.7498 208.7 22.6589 208.823 22.5158C208.945 22.3727 209.009 22.1883 209 22C208.975 21.785 208.867 21.5883 208.698 21.4519C208.53 21.3156 208.316 21.2503 208.1 21.27H207V23.68H207.41L207.44 22.77ZM207.44 21.62H208.12C208.18 21.6107 208.241 21.6144 208.299 21.631C208.358 21.6476 208.412 21.6766 208.458 21.716C208.504 21.7554 208.541 21.8043 208.566 21.8594C208.591 21.9145 208.605 21.9744 208.605 22.035C208.605 22.0956 208.591 22.1555 208.566 22.2106C208.541 22.2656 208.504 22.3146 208.458 22.354C208.412 22.3934 208.358 22.4224 208.299 22.439C208.241 22.4556 208.18 22.4593 208.12 22.45H207.44V21.62Z" fill="white"/>
<path d="M207.94 24.61C208.527 24.64 209.103 24.4357 209.539 24.0419C209.976 23.6482 210.239 23.0973 210.27 22.51C210.205 21.9363 209.931 21.4067 209.5 21.0222C209.07 20.6376 208.512 20.4251 207.935 20.4251C207.358 20.4251 206.8 20.6376 206.37 21.0222C205.939 21.4067 205.665 21.9363 205.6 22.51C205.634 23.0981 205.899 23.6491 206.337 24.0426C206.775 24.436 207.352 24.64 207.94 24.61ZM207.94 20.75C208.281 20.7829 208.605 20.914 208.873 21.1274C209.141 21.3408 209.341 21.6273 209.449 21.9522C209.557 22.2771 209.569 22.6264 209.483 22.9578C209.397 23.2893 209.216 23.5885 208.963 23.8194C208.71 24.0502 208.395 24.2027 208.057 24.2583C207.72 24.3139 207.373 24.2703 207.059 24.1328C206.745 23.9953 206.478 23.7697 206.29 23.4834C206.102 23.1971 206.002 22.8625 206 22.52C206.012 22.277 206.071 22.0386 206.175 21.8185C206.278 21.5985 206.425 21.401 206.605 21.2375C206.785 21.0741 206.996 20.9477 207.225 20.8658C207.454 20.7838 207.697 20.7479 207.94 20.76V20.75Z" fill="white"/>
</g>
<defs>
<clipPath id="clip0">
<rect width="221.3" height="101.02" fill="white"/>
</clipPath>
</defs>
</svg>
